<?xml version="1.0" encoding="UTF-8"?>
<svg xmlns="http://www.w3.org/2000/svg" xmlns:xlink="http://www.w3.org/1999/xlink" width="194pt" height="194pt" viewBox="0 0 194 194" version="1.1">
<g id="surface1">
<path style=" stroke:none;fill-rule:evenodd;fill:rgb(13.699341%,12.199402%,12.5%);fill-opacity:1;" d="M 0.257813 0.675781 L 193.015625 0.675781 L 193.015625 193.433594 L 0.257813 193.433594 L 0.257813 0.675781 "/>
<path style=" stroke:none;fill-rule:evenodd;fill:rgb(100%,100%,100%);fill-opacity:1;" d="M 23.855469 117.171875 L 23.855469 117.835938 C 21.652344 117.96875 21.386719 118.171875 21.386719 121.171875 L 21.386719 127.042969 C 21.386719 129.378906 21.71875 131.179688 22.589844 132.378906 C 23.457031 133.648438 24.722656 134.316406 26.589844 134.316406 C 28.324219 134.316406 29.792969 133.582031 30.660156 132.246094 C 31.59375 130.847656 31.925781 128.378906 31.925781 126.042969 L 31.925781 124.574219 C 31.925781 121.640625 31.792969 120.105469 31.726563 119.238281 C 31.527344 118.304688 30.792969 117.90625 28.992188 117.835938 L 28.992188 117.171875 L 35.664063 117.171875 L 35.664063 117.835938 C 34.128906 117.835938 33.394531 118.304688 33.261719 119.238281 C 33.128906 120.105469 33.0625 121.640625 33.0625 124.574219 L 33.0625 126.441406 C 33.0625 129.644531 32.527344 131.914063 30.925781 133.648438 C 29.726563 134.914063 27.726563 135.648438 25.789063 135.648438 C 24.257813 135.648438 22.519531 135.316406 21.1875 134.246094 C 19.71875 133.046875 19.050781 131.179688 19.050781 127.976563 L 19.050781 121.171875 C 19.050781 118.171875 18.851563 117.96875 16.519531 117.835938 L 16.519531 117.171875 Z M 171.355469 132.3125 C 171.355469 134.582031 171.554688 134.714844 173.554688 134.847656 L 173.554688 135.316406 L 167.550781 135.316406 L 167.550781 134.847656 C 169.488281 134.714844 169.621094 134.582031 169.621094 132.3125 L 169.621094 129.910156 C 169.621094 129.578125 169.554688 129.378906 169.152344 128.710938 C 168.21875 127.042969 167.417969 125.574219 166.484375 124.042969 C 165.617188 122.507813 165.550781 122.441406 164.351563 122.238281 L 164.351563 121.773438 L 169.351563 121.773438 L 169.351563 122.238281 L 168.417969 122.375 C 167.886719 122.507813 167.753906 122.640625 168.085938 123.308594 C 169.019531 125.042969 169.953125 126.777344 171.019531 128.511719 C 171.886719 126.84375 172.820313 125.109375 173.554688 123.441406 C 173.957031 122.640625 173.757813 122.441406 172.953125 122.375 L 172.15625 122.238281 L 172.15625 121.773438 L 176.757813 121.773438 L 176.757813 122.238281 C 175.355469 122.375 175.222656 122.640625 174.355469 124.042969 C 173.421875 125.507813 172.621094 126.910156 171.753906 128.578125 C 171.421875 129.179688 171.355469 129.3125 171.355469 129.710938 Z M 154.742188 132.3125 C 154.742188 134.582031 154.878906 134.714844 156.945313 134.847656 L 156.945313 135.316406 L 150.875 135.316406 L 150.875 134.847656 C 152.808594 134.714844 153.007813 134.582031 153.007813 132.3125 L 153.007813 122.507813 L 152.007813 122.507813 C 150.140625 122.507813 149.605469 122.773438 149.273438 123.175781 C 149.074219 123.441406 148.804688 124.042969 148.539063 124.910156 L 148.003906 124.910156 C 148.140625 123.640625 148.207031 122.304688 148.273438 121.238281 L 148.539063 121.238281 C 148.871094 121.773438 149.074219 121.773438 149.671875 121.773438 L 158.214844 121.773438 C 158.746094 121.773438 158.8125 121.640625 159.144531 121.238281 L 159.480469 121.238281 C 159.480469 122.171875 159.613281 123.640625 159.679688 124.910156 L 159.144531 124.910156 C 158.945313 123.90625 158.746094 123.375 158.414063 123.039063 C 158.078125 122.640625 157.410156 122.507813 156.144531 122.507813 L 154.742188 122.507813 Z M 140.734375 132.3125 C 140.734375 134.582031 140.867188 134.714844 142.601563 134.847656 L 142.601563 135.316406 L 137.132813 135.316406 L 137.132813 134.847656 C 138.800781 134.714844 139 134.582031 139 132.3125 L 139 124.84375 C 139 122.574219 138.800781 122.375 137.132813 122.238281 L 137.132813 121.773438 L 142.601563 121.773438 L 142.601563 122.238281 C 140.867188 122.375 140.734375 122.574219 140.734375 124.84375 Z M 123.589844 131.644531 C 123.921875 132.648438 124.988281 134.980469 127.191406 134.980469 C 128.792969 134.980469 129.792969 133.914063 129.792969 132.246094 C 129.792969 130.511719 128.460938 129.777344 127.125 129.113281 C 126.457031 128.777344 123.589844 127.84375 123.589844 125.308594 C 123.589844 123.242188 125.191406 121.507813 127.925781 121.507813 C 128.460938 121.507813 129.191406 121.574219 129.660156 121.773438 C 129.925781 121.839844 130.195313 121.90625 130.460938 121.972656 C 130.527344 122.707031 130.660156 123.574219 130.792969 124.773438 L 130.261719 124.84375 C 129.925781 123.640625 129.328125 122.171875 127.457031 122.171875 C 125.992188 122.171875 125.191406 123.242188 125.191406 124.507813 C 125.191406 126.042969 126.324219 126.710938 127.859375 127.445313 C 129.261719 128.042969 131.460938 128.910156 131.460938 131.445313 C 131.460938 133.914063 129.460938 135.648438 126.792969 135.648438 C 126.058594 135.648438 125.390625 135.515625 124.855469 135.316406 C 124.324219 135.183594 123.921875 134.980469 123.722656 134.914063 C 123.523438 134.382813 123.320313 132.914063 123.121094 131.78125 Z M 109.511719 123.039063 C 109.511719 122.640625 109.578125 122.574219 109.714844 122.507813 C 109.847656 122.441406 110.113281 122.375 110.847656 122.375 C 112.449219 122.375 113.984375 123.242188 113.984375 125.441406 C 113.984375 126.511719 113.714844 127.511719 112.78125 128.242188 C 112.246094 128.644531 111.582031 128.777344 110.714844 128.777344 L 109.511719 128.777344 Z M 109.511719 129.378906 L 110.648438 129.378906 C 111.246094 129.378906 111.582031 129.578125 111.914063 130.113281 C 112.515625 131.113281 113.382813 132.648438 114.050781 133.582031 C 114.851563 134.714844 115.585938 135.449219 117.984375 135.515625 L 118.253906 135.515625 L 118.320313 135.117188 C 117.519531 134.914063 117.183594 134.582031 116.71875 134.113281 C 116.183594 133.449219 115.71875 132.914063 114.984375 131.78125 C 114.382813 130.914063 113.515625 129.445313 113.117188 128.84375 C 114.785156 128.109375 115.851563 126.910156 115.851563 125.175781 C 115.851563 123.972656 115.316406 123.039063 114.515625 122.507813 C 113.714844 121.972656 112.515625 121.773438 111.179688 121.773438 L 105.910156 121.773438 L 105.910156 122.238281 C 107.578125 122.375 107.777344 122.574219 107.777344 124.84375 L 107.777344 132.3125 C 107.777344 134.582031 107.578125 134.714844 105.84375 134.847656 L 105.84375 135.316406 L 111.382813 135.316406 L 111.382813 134.847656 C 109.648438 134.714844 109.511719 134.582031 109.511719 132.3125 Z M 92.035156 124.84375 C 92.035156 122.574219 91.835938 122.375 90.167969 122.238281 L 90.167969 121.773438 L 99.304688 121.773438 C 99.371094 122.171875 99.441406 123.640625 99.574219 124.84375 L 99.039063 124.910156 C 98.839844 123.839844 98.574219 123.308594 98.304688 122.972656 C 97.972656 122.640625 97.238281 122.507813 95.96875 122.507813 L 94.4375 122.507813 C 93.835938 122.507813 93.769531 122.507813 93.769531 123.105469 L 93.769531 127.910156 L 95.902344 127.910156 C 97.707031 127.910156 97.773438 127.777344 97.972656 126.242188 L 98.4375 126.242188 L 98.4375 130.3125 L 97.972656 130.3125 C 97.839844 129.578125 97.773438 129.179688 97.503906 128.910156 C 97.238281 128.710938 96.773438 128.644531 95.902344 128.644531 L 93.769531 128.644531 L 93.769531 132.3125 C 93.769531 133.515625 93.902344 134.179688 94.300781 134.382813 C 94.703125 134.648438 95.4375 134.648438 96.4375 134.648438 C 97.636719 134.648438 98.574219 134.582031 99.039063 134.046875 C 99.441406 133.648438 99.773438 132.980469 100.039063 131.980469 L 100.574219 132.046875 C 100.441406 132.648438 100.039063 134.78125 99.839844 135.316406 L 89.96875 135.316406 L 89.96875 134.847656 C 91.835938 134.714844 92.035156 134.582031 92.035156 132.3125 Z M 77.824219 135.449219 C 76.425781 131.714844 74.421875 126.578125 73.488281 124.242188 C 72.824219 122.574219 72.554688 122.375 71.289063 122.238281 L 71.289063 121.773438 L 76.359375 121.773438 L 76.359375 122.238281 L 75.691406 122.375 C 74.957031 122.441406 74.824219 122.640625 75.023438 123.308594 C 75.558594 124.84375 77.15625 128.976563 78.691406 132.847656 C 79.761719 129.976563 81.5625 125.242188 82.027344 123.90625 C 82.429688 122.707031 82.226563 122.441406 81.292969 122.304688 L 80.695313 122.238281 L 80.695313 121.773438 L 85.230469 121.773438 L 85.230469 122.238281 C 83.828125 122.441406 83.628906 122.574219 82.894531 124.375 C 82.628906 125.042969 80.027344 131.246094 78.425781 135.449219 Z M 64.484375 132.3125 C 64.484375 134.582031 64.683594 134.714844 66.417969 134.847656 L 66.417969 135.316406 L 60.878906 135.316406 L 60.878906 134.847656 C 62.613281 134.714844 62.746094 134.582031 62.746094 132.3125 L 62.746094 124.84375 C 62.746094 122.574219 62.613281 122.375 60.878906 122.238281 L 60.878906 121.773438 L 66.417969 121.773438 L 66.417969 122.238281 C 64.683594 122.375 64.484375 122.574219 64.484375 124.84375 Z M 53.609375 135.515625 L 53.074219 135.515625 L 44.003906 124.507813 L 44.003906 129.84375 C 44.003906 131.980469 44.070313 133.113281 44.136719 133.78125 C 44.269531 134.515625 44.800781 134.78125 46.203125 134.847656 L 46.203125 135.316406 L 41.199219 135.316406 L 41.199219 134.847656 C 42.335938 134.847656 42.867188 134.515625 43.003906 133.78125 C 43.070313 133.113281 43.136719 131.980469 43.136719 129.84375 L 43.136719 125.308594 C 43.136719 123.773438 43.136719 123.441406 42.734375 122.972656 C 42.335938 122.507813 41.800781 122.304688 40.933594 122.238281 L 40.933594 121.773438 L 43.9375 121.773438 L 52.742188 132.3125 L 52.742188 127.308594 C 52.742188 125.109375 52.675781 123.972656 52.609375 123.375 C 52.476563 122.640625 51.941406 122.304688 50.539063 122.238281 L 50.539063 121.773438 L 55.542969 121.773438 L 55.542969 122.238281 C 54.410156 122.304688 53.875 122.640625 53.742188 123.375 C 53.675781 123.972656 53.609375 125.109375 53.609375 127.308594 L 53.609375 135.515625 "/>
<path style=" stroke:none;fill-rule:evenodd;fill:rgb(100%,100%,100%);fill-opacity:1;" d="M 50.339844 148.992188 L 56.410156 161.867188 L 62.347656 148.992188 L 66.484375 148.992188 L 66.484375 149.59375 C 64.347656 149.792969 64.148438 149.859375 64.28125 152.660156 L 64.484375 161.667969 C 64.550781 164.46875 64.617188 164.535156 66.816406 164.667969 L 66.816406 165.269531 L 60.214844 165.269531 L 60.214844 164.667969 C 62.28125 164.535156 62.347656 164.46875 62.347656 161.667969 L 62.28125 151.59375 L 62.148438 151.59375 L 56.011719 165.003906 L 55.410156 165.003906 L 49.605469 151.925781 L 49.539063 151.925781 L 49.339844 158.863281 C 49.207031 161.265625 49.207031 162.601563 49.339844 163.402344 C 49.472656 164.335938 50.074219 164.601563 51.675781 164.667969 L 51.675781 165.269531 L 45.804688 165.269531 L 45.804688 164.667969 C 47.203125 164.601563 47.738281 164.335938 47.871094 163.402344 C 48.070313 162.601563 48.207031 161.132813 48.339844 158.664063 L 48.605469 153.394531 C 48.738281 150.058594 48.605469 149.792969 46.269531 149.59375 L 46.269531 148.992188 Z M 170.152344 155.128906 L 171.886719 159.796875 L 168.484375 159.796875 Z M 172.15625 165.203125 L 176.691406 165.203125 L 176.691406 164.734375 C 175.558594 164.667969 175.289063 164.535156 174.691406 162.933594 C 173.957031 161 173.089844 158.597656 172.222656 156.195313 L 170.886719 152.527344 L 170.421875 152.726563 L 166.550781 162.800781 C 165.882813 164.46875 165.683594 164.601563 164.484375 164.734375 L 164.484375 165.203125 L 168.550781 165.203125 L 168.550781 164.734375 L 167.953125 164.667969 C 167.085938 164.601563 166.953125 164.402344 167.285156 163.269531 C 167.550781 162.46875 168.085938 161 168.21875 160.464844 L 172.089844 160.464844 C 172.621094 161.867188 173.15625 163.335938 173.289063 163.800781 C 173.488281 164.402344 173.421875 164.601563 172.753906 164.667969 L 172.15625 164.734375 Z M 153.476563 153.996094 C 153.476563 153.59375 153.542969 153.527344 153.675781 153.527344 C 153.808594 153.460938 154.078125 153.394531 154.675781 153.394531 C 156.945313 153.394531 157.410156 154.660156 157.410156 155.796875 C 157.410156 157.332031 156.476563 158.199219 154.675781 158.199219 L 153.476563 158.199219 Z M 150.273438 152.859375 L 150.273438 153.261719 C 151.742188 153.394531 151.875 153.527344 151.875 155.597656 L 151.875 162.402344 C 151.875 164.46875 151.742188 164.601563 150.140625 164.734375 L 150.140625 165.203125 L 154.542969 165.203125 C 155.945313 165.203125 157.144531 165.003906 158.144531 164.46875 C 159.214844 163.867188 159.878906 162.867188 159.878906 161.53125 C 159.878906 159.597656 158.347656 158.597656 156.609375 158.332031 C 157.546875 158.066406 159.078125 157.265625 159.078125 155.597656 C 159.078125 154.660156 158.746094 153.929688 158.144531 153.527344 C 157.480469 153.0625 156.746094 152.859375 155.34375 152.859375 Z M 154.609375 158.796875 C 156.546875 158.796875 158.078125 159.730469 158.078125 161.800781 C 158.078125 163.800781 156.746094 164.601563 155.144531 164.601563 C 153.742188 164.601563 153.476563 164.203125 153.476563 162.933594 L 153.476563 158.796875 Z M 142.867188 159.53125 C 142.867188 163.066406 141 164.867188 138.734375 164.867188 C 135.929688 164.867188 133.996094 162.265625 133.996094 158.597656 C 133.996094 154.996094 135.929688 153.195313 138.132813 153.195313 C 140.867188 153.195313 142.867188 155.460938 142.867188 159.53125 Z M 138.664063 152.527344 C 134.394531 152.527344 132.195313 155.929688 132.195313 159.132813 C 132.195313 162.734375 134.730469 165.46875 138.332031 165.46875 C 141.933594 165.46875 144.671875 162.800781 144.671875 158.863281 C 144.671875 155.128906 141.933594 152.527344 138.664063 152.527344 Z M 122.988281 162.402344 C 122.988281 164.46875 123.121094 164.601563 124.988281 164.734375 L 124.988281 165.203125 L 119.453125 165.203125 L 119.453125 164.734375 C 121.253906 164.601563 121.386719 164.46875 121.386719 162.402344 L 121.386719 153.460938 L 120.519531 153.460938 C 118.785156 153.460938 118.320313 153.726563 118.050781 154.0625 C 117.785156 154.328125 117.585938 154.863281 117.386719 155.730469 L 116.851563 155.730469 C 116.984375 154.527344 117.050781 153.328125 117.117188 152.394531 L 117.386719 152.394531 C 117.652344 152.792969 117.851563 152.859375 118.386719 152.859375 L 126.125 152.859375 C 126.65625 152.859375 126.726563 152.726563 127.058594 152.394531 L 127.324219 152.394531 C 127.324219 153.195313 127.390625 154.527344 127.523438 155.664063 L 127.058594 155.730469 C 126.859375 154.796875 126.65625 154.261719 126.390625 153.929688 C 126.058594 153.59375 125.457031 153.460938 124.257813 153.460938 L 122.988281 153.460938 Z M 110.046875 162.402344 C 110.046875 164.46875 110.179688 164.601563 111.78125 164.734375 L 111.78125 165.203125 L 106.710938 165.203125 L 106.710938 164.734375 C 108.3125 164.601563 108.445313 164.46875 108.445313 162.402344 L 108.445313 155.597656 C 108.445313 153.527344 108.3125 153.394531 106.710938 153.261719 L 106.710938 152.859375 L 111.78125 152.859375 L 111.78125 153.261719 C 110.179688 153.394531 110.046875 153.527344 110.046875 155.597656 Z M 99.90625 165.335938 L 99.441406 165.335938 L 91.167969 155.328125 L 91.167969 160.132813 C 91.167969 162.132813 91.234375 163.203125 91.300781 163.734375 C 91.367188 164.402344 91.902344 164.667969 93.167969 164.734375 L 93.167969 165.203125 L 88.566406 165.203125 L 88.566406 164.734375 C 89.632813 164.734375 90.167969 164.402344 90.234375 163.734375 C 90.300781 163.203125 90.367188 162.132813 90.367188 160.132813 L 90.367188 156.0625 C 90.367188 154.660156 90.367188 154.328125 90.03125 153.929688 C 89.632813 153.460938 89.167969 153.328125 88.367188 153.261719 L 88.367188 152.859375 L 91.101563 152.859375 L 99.105469 162.402344 L 99.171875 162.402344 L 99.171875 157.863281 C 99.171875 155.863281 99.105469 154.863281 99.039063 154.261719 C 98.90625 153.59375 98.371094 153.328125 97.171875 153.261719 L 97.171875 152.859375 L 101.707031 152.859375 L 101.707031 153.261719 C 100.640625 153.328125 100.171875 153.59375 100.039063 154.261719 C 99.972656 154.863281 99.90625 155.863281 99.90625 157.863281 Z M 77.425781 155.128906 L 77.492188 155.128906 L 79.160156 159.796875 L 75.757813 159.796875 Z M 79.425781 165.203125 L 84.03125 165.203125 L 84.03125 164.734375 C 82.828125 164.667969 82.5625 164.535156 81.960938 162.933594 C 81.226563 161 80.359375 158.597656 79.492188 156.195313 L 78.160156 152.527344 L 77.691406 152.726563 L 73.824219 162.800781 C 73.15625 164.46875 72.957031 164.601563 71.753906 164.734375 L 71.753906 165.203125 L 75.824219 165.203125 L 75.824219 164.734375 L 75.222656 164.667969 C 74.421875 164.601563 74.222656 164.402344 74.554688 163.269531 C 74.824219 162.46875 75.355469 161 75.558594 160.464844 L 79.359375 160.464844 C 79.894531 161.867188 80.492188 163.335938 80.628906 163.800781 C 80.761719 164.402344 80.695313 164.601563 80.027344 164.667969 L 79.425781 164.734375 Z M 16.519531 164.703125 L 35.261719 164.703125 L 35.261719 165.167969 L 16.519531 165.167969 Z M 30.195313 154.929688 C 30.195313 153.460938 30.125 153.328125 28.925781 153.261719 L 28.925781 152.992188 L 35.261719 152.992188 C 35.261719 153.195313 35.328125 154.195313 35.398438 154.929688 L 35.0625 154.996094 C 34.929688 154.328125 34.730469 153.929688 34.53125 153.726563 C 34.261719 153.527344 33.796875 153.394531 32.929688 153.394531 L 31.859375 153.394531 C 31.460938 153.394531 31.460938 153.460938 31.460938 153.859375 L 31.460938 157.128906 L 32.996094 157.128906 C 34.261719 157.128906 34.328125 156.996094 34.460938 155.996094 L 34.863281 155.996094 L 34.863281 158.664063 L 34.460938 158.664063 C 34.328125 157.664063 34.261719 157.597656 32.996094 157.597656 L 31.460938 157.597656 L 31.460938 159.867188 C 31.460938 161.332031 31.527344 161.464844 32.929688 161.53125 L 32.929688 161.867188 L 28.925781 161.867188 L 28.925781 161.53125 C 30.125 161.464844 30.195313 161.332031 30.195313 159.867188 Z M 23.855469 157.730469 C 23.855469 160.265625 22.589844 161.464844 20.988281 161.464844 C 19.117188 161.464844 17.785156 159.664063 17.785156 157.128906 C 17.785156 154.59375 19.117188 153.328125 20.652344 153.328125 C 22.519531 153.328125 23.855469 154.863281 23.855469 157.730469 Z M 20.988281 152.859375 C 18.050781 152.859375 16.519531 155.261719 16.519531 157.464844 C 16.519531 160 18.253906 161.933594 20.71875 161.933594 C 23.253906 161.933594 25.121094 160.066406 25.121094 157.265625 C 25.121094 154.660156 23.253906 152.859375 20.988281 152.859375 "/>
<path style=" stroke:none;fill-rule:nonzero;fill:rgb(100%,100%,100%);fill-opacity:1;" d="M 121.972656 56.5625 C 121.972656 66.90625 119.261719 76.679688 114.566406 84.636719 C 109.859375 92.605469 103.15625 98.757813 95.179688 101.839844 L 94.925781 101.933594 L 94.675781 101.839844 C 86.699219 98.757813 79.992188 92.605469 75.289063 84.636719 C 70.59375 76.679688 67.882813 66.90625 67.882813 56.5625 L 67.882813 53.050781 L 67.949219 28.640625 L 121.972656 28.640625 L 121.972656 56.5625 "/>
<path style=" stroke:none;fill-rule:nonzero;fill:rgb(13.699341%,12.199402%,12.5%);fill-opacity:1;" d="M 120.570313 51.683594 L 69.28125 51.683594 L 69.28125 56.5625 C 69.28125 66.65625 71.917969 76.183594 76.492188 83.925781 C 80.992188 91.550781 87.363281 97.441406 94.925781 100.4375 C 102.488281 97.441406 108.863281 91.550781 113.363281 83.925781 C 117.933594 76.183594 120.570313 66.65625 120.570313 56.5625 L 120.570313 51.683594 "/>
<path style=" stroke:none;fill-rule:nonzero;fill:rgb(100%,100%,100%);fill-opacity:1;" d="M 120.570313 50.214844 L 120.570313 30.039063 L 69.347656 30.039063 L 69.347656 50.214844 L 120.570313 50.214844 "/>
<path style=" stroke:none;fill-rule:evenodd;fill:rgb(100%,100%,100%);fill-opacity:1;" d="M 108.773438 69.734375 L 107.160156 69.734375 C 107.160156 69.734375 107.292969 66.238281 107.292969 66.105469 C 107.292969 66.035156 105.546875 66.777344 105.546875 66.710938 C 104.738281 65.769531 102.992188 65.433594 103.058594 65.363281 C 103.328125 65.164063 103.796875 64.425781 103.796875 64.425781 C 103.730469 63.953125 103.191406 63.484375 101.175781 62.339844 C 101.042969 62.273438 102.65625 61.667969 100.976563 59.585938 C 100.976563 59.519531 101.578125 59.519531 101.917969 58.242188 C 101.917969 58.105469 102.855469 58.644531 103.460938 58.105469 C 103.53125 58.039063 105.210938 60.257813 105.410156 59.855469 C 105.679688 59.382813 104.605469 57.097656 104.738281 56.964844 C 104.804688 56.898438 106.085938 57.300781 106.488281 55.417969 C 106.488281 55.351563 107.160156 55.351563 107.964844 53.738281 C 107.964844 53.671875 108.570313 55.148438 109.378906 55.417969 C 109.578125 55.484375 109.445313 57.03125 111.191406 56.964844 C 111.257813 56.964844 110.183594 59.921875 110.519531 59.921875 C 111.125 59.921875 112.335938 58.039063 112.402344 58.105469 C 113.074219 58.578125 113.609375 58.308594 113.945313 58.175781 C 114.082031 58.175781 114.148438 59.316406 114.953125 59.585938 C 114.953125 59.585938 113.273438 61.199219 114.753906 62.339844 C 114.753906 62.339844 112.132813 63.617188 112.066406 64.355469 C 112.066406 64.625 112.871094 65.363281 112.804688 65.363281 C 111.59375 65.902344 111.191406 65.902344 110.316406 66.710938 C 110.386719 66.710938 108.636719 66.035156 108.636719 66.105469 C 108.636719 66.371094 108.773438 69.734375 108.773438 69.734375 "/>
<path style=" stroke:none;fill-rule:evenodd;fill:rgb(13.699341%,12.199402%,12.5%);fill-opacity:1;" d="M 108.164063 69.128906 L 107.695313 69.128906 C 107.695313 69.128906 107.765625 65.5 107.765625 65.363281 C 107.765625 65.230469 105.8125 65.96875 105.8125 65.96875 C 104.871094 65.230469 104.066406 65.230469 104.132813 65.164063 C 104.335938 64.960938 104.605469 64.625 104.605469 64.355469 C 104.671875 64.089844 103.261719 62.609375 102.117188 62.207031 C 102.050781 62.140625 103.261719 61.667969 101.847656 59.785156 C 101.78125 59.785156 102.183594 59.585938 102.320313 58.847656 C 102.320313 58.847656 102.855469 59.183594 103.394531 58.777344 C 103.460938 58.777344 105.074219 61.0625 105.882813 60.59375 C 106.488281 60.191406 105.679688 58.578125 105.480469 57.503906 C 105.410156 57.367188 106.285156 57.636719 106.890625 55.957031 C 106.890625 55.890625 107.425781 55.753906 107.964844 54.878906 C 107.964844 54.878906 108.101563 55.417969 109.039063 55.957031 C 109.039063 55.957031 109.308594 57.300781 110.453125 57.433594 C 110.585938 57.433594 109.242188 60.257813 110.050781 60.660156 C 110.855469 60.996094 112.46875 58.777344 112.46875 58.777344 C 113.074219 59.113281 113.34375 58.914063 113.542969 58.847656 C 113.679688 58.777344 113.476563 59.25 114.082031 59.785156 C 114.082031 59.855469 112.671875 61.332031 113.746094 62.207031 C 113.746094 62.140625 111.59375 63.347656 111.257813 64.355469 C 111.191406 64.625 111.796875 65.164063 111.730469 65.164063 C 111.394531 65.296875 110.652344 65.5 110.050781 65.96875 C 110.050781 65.96875 108.164063 65.230469 108.164063 65.363281 C 108.164063 65.632813 108.164063 69.128906 108.164063 69.128906 Z M 108.234375 63.820313 L 107.695313 63.820313 L 107.964844 58.710938 Z M 106.824219 64.492188 L 107.226563 64.089844 L 104.46875 61.667969 Z M 109.109375 64.492188 L 108.703125 64.089844 L 111.394531 61.667969 Z M 109.109375 64.492188 "/>
<path style=" stroke:none;fill-rule:evenodd;fill:rgb(13.699341%,12.199402%,12.5%);fill-opacity:1;" d="M 91.027344 73.496094 C 91.5 73.496094 91.96875 73.296875 92.238281 73.09375 C 92.574219 72.894531 93.046875 72.757813 93.515625 72.757813 C 94.050781 72.757813 94.523438 73.363281 94.859375 73.566406 C 95.128906 73.363281 95.664063 72.757813 96.203125 72.757813 C 96.675781 72.757813 97.078125 72.894531 97.414063 73.09375 C 97.75 73.363281 98.152344 73.496094 98.625 73.496094 L 102.855469 73.496094 L 102.855469 84.183594 L 98.625 84.183594 C 98.152344 84.183594 97.75 84.050781 97.414063 83.847656 C 97.078125 83.644531 96.675781 83.511719 96.203125 83.511719 C 95.664063 83.511719 95.128906 83.914063 94.859375 84.183594 C 94.523438 83.914063 94.050781 83.511719 93.515625 83.511719 C 93.046875 83.511719 92.574219 83.644531 92.238281 83.847656 C 91.96875 84.050781 91.5 84.183594 91.027344 84.183594 L 86.792969 84.183594 L 86.792969 73.496094 L 91.027344 73.496094 "/>
<path style=" stroke:none;fill-rule:nonzero;fill:rgb(100%,100%,100%);fill-opacity:1;" d="M 91.027344 73.054688 C 91.195313 73.054688 91.363281 73.019531 91.519531 72.96875 C 91.664063 72.921875 91.792969 72.859375 91.894531 72.796875 C 91.972656 72.746094 92.039063 72.695313 92.121094 72.652344 C 92.304688 72.554688 92.511719 72.476563 92.730469 72.417969 C 92.980469 72.351563 93.25 72.3125 93.515625 72.3125 C 94.050781 72.3125 94.464844 72.667969 94.804688 72.960938 L 94.808594 72.964844 C 94.820313 72.976563 94.832031 72.984375 94.84375 72.996094 C 95.15625 72.722656 95.574219 72.378906 96.0625 72.324219 C 96.171875 72.3125 96.285156 72.3125 96.394531 72.320313 C 96.820313 72.351563 97.199219 72.472656 97.527344 72.648438 C 97.625 72.703125 97.699219 72.757813 97.789063 72.820313 C 98.023438 72.976563 98.300781 73.054688 98.625 73.054688 L 103.300781 73.054688 L 103.300781 84.628906 L 98.617188 84.628906 C 98.0625 84.625 97.585938 84.464844 97.1875 84.226563 C 97.050781 84.144531 96.898438 84.074219 96.734375 84.027344 C 96.578125 83.980469 96.398438 83.953125 96.203125 83.953125 C 96.050781 83.953125 95.890625 84.007813 95.738281 84.085938 C 95.507813 84.199219 95.304688 84.367188 95.171875 84.496094 L 94.894531 84.777344 L 94.585938 84.53125 C 94.550781 84.503906 94.585938 84.53125 94.527344 84.484375 C 94.246094 84.257813 93.871094 83.953125 93.515625 83.953125 C 93.320313 83.953125 93.128906 83.980469 92.953125 84.027344 C 92.773438 84.074219 92.613281 84.140625 92.480469 84.21875 C 92.480469 84.21875 92.476563 84.21875 92.476563 84.21875 C 92.476563 84.21875 92.476563 84.222656 92.476563 84.222656 C 92.300781 84.347656 92.070313 84.449219 91.820313 84.519531 C 91.574219 84.585938 91.296875 84.628906 91.027344 84.628906 L 86.351563 84.628906 L 86.351563 73.054688 Z M 91.796875 73.808594 C 91.558594 73.890625 91.292969 73.941406 91.027344 73.941406 L 87.238281 73.941406 L 87.238281 83.738281 L 91.027344 83.738281 C 91.226563 83.738281 91.417969 83.714844 91.585938 83.664063 C 91.988281 83.554688 92.304688 83.28125 92.730469 83.171875 C 92.980469 83.105469 93.25 83.066406 93.515625 83.066406 C 94.050781 83.066406 94.492188 83.339844 94.84375 83.609375 C 94.992188 83.496094 95.160156 83.382813 95.34375 83.289063 C 95.605469 83.160156 95.902344 83.066406 96.203125 83.066406 C 96.710938 83.066406 97.207031 83.210938 97.640625 83.46875 C 97.910156 83.628906 98.238281 83.738281 98.617188 83.738281 L 102.414063 83.738281 L 102.414063 73.941406 L 98.625 73.941406 C 98.058594 73.941406 97.566406 73.777344 97.152344 73.453125 C 96.941406 73.332031 96.691406 73.242188 96.410156 73.210938 C 96.3125 73.203125 96.203125 73.191406 96.101563 73.214844 C 95.863281 73.277344 95.570313 73.535156 95.359375 73.71875 L 95.359375 73.722656 C 95.28125 73.789063 95.214844 73.851563 95.125 73.917969 L 94.886719 74.097656 L 94.632813 73.945313 C 94.496094 73.863281 94.371094 73.753906 94.230469 73.632813 C 94 73.4375 93.726563 73.203125 93.515625 73.203125 C 93.320313 73.203125 93.128906 73.226563 92.953125 73.273438 C 92.773438 73.320313 92.613281 73.390625 92.480469 73.46875 C 92.304688 73.59375 92.058594 73.722656 91.796875 73.808594 Z M 91.796875 73.808594 Z M 92.476563 84.21875 C 92.476563 84.21875 92.476563 84.222656 92.476563 84.21875 "/>
<path style=" stroke:none;fill-rule:evenodd;fill:rgb(100%,100%,100%);fill-opacity:1;" d="M 98.625 85.058594 C 98.152344 85.058594 97.75 84.921875 97.480469 84.722656 L 97.414063 84.722656 C 97.144531 84.519531 96.675781 84.386719 96.203125 84.386719 C 95.664063 84.386719 95.195313 84.855469 94.859375 85.125 C 94.523438 84.855469 94.050781 84.386719 93.515625 84.386719 C 93.046875 84.386719 92.574219 84.519531 92.304688 84.722656 C 91.96875 84.921875 91.5 85.058594 91.027344 85.058594 L 85.921875 85.058594 L 85.921875 74.4375 L 84.980469 74.4375 L 84.980469 85.996094 L 91.027344 85.996094 C 91.5 85.996094 91.96875 85.863281 92.238281 85.660156 L 92.238281 85.59375 C 92.574219 85.394531 92.976563 85.257813 93.515625 85.257813 C 94.050781 85.257813 94.523438 85.730469 94.859375 85.996094 C 95.128906 85.730469 95.664063 85.257813 96.136719 85.257813 C 96.675781 85.257813 97.078125 85.394531 97.414063 85.59375 L 97.414063 85.660156 C 97.75 85.863281 98.152344 85.996094 98.625 85.996094 L 104.671875 85.996094 L 104.671875 74.4375 L 103.796875 74.4375 L 103.796875 85.058594 L 98.625 85.058594 "/>
<path style=" stroke:none;fill-rule:evenodd;fill:rgb(100%,100%,100%);fill-opacity:1;" d="M 95.128906 82.703125 L 95.128906 74.773438 L 94.457031 74.773438 L 94.457031 82.703125 L 95.128906 82.703125 "/>
<path style=" stroke:none;fill-rule:nonzero;fill:rgb(100%,100%,100%);fill-opacity:1;" d="M 91.347656 44.246094 C 91.363281 44.214844 91.378906 44.179688 91.398438 44.144531 C 91.492188 43.957031 91.589844 42.699219 91.632813 42.066406 C 91.484375 41.988281 91.324219 41.90625 91.164063 41.828125 C 90.546875 41.53125 89.914063 41.273438 89.734375 41.273438 C 89.074219 41.738281 88.597656 41.925781 87.882813 42.121094 C 87.917969 41.894531 87.964844 41.671875 87.96875 41.441406 C 87.976563 41.089844 87.878906 40.675781 87.386719 40.609375 L 87.382813 40.609375 C 87.320313 40.601563 87.269531 40.574219 87.222656 40.535156 C 86.96875 40.328125 86.925781 39.742188 86.894531 39.304688 C 86.878906 39.085938 86.890625 38.925781 86.878906 38.917969 L 86.863281 38.910156 C 86.625 38.738281 86.453125 38.601563 86.339844 38.496094 C 86.222656 38.390625 86.160156 38.300781 86.148438 38.238281 C 85.964844 37.464844 85.960938 37.246094 85.960938 37.179688 L 85.933594 37.148438 C 85.828125 36.984375 85.539063 36.550781 85.539063 36.265625 L 85.539063 36.253906 C 85.570313 35.972656 85.730469 35.632813 85.941406 35.300781 C 86.214844 34.867188 86.578125 34.441406 86.847656 34.167969 C 87.136719 33.882813 87.6875 33.667969 88.1875 33.472656 C 88.425781 33.382813 88.652344 33.292969 88.828125 33.203125 L 88.835938 33.199219 L 88.851563 33.199219 C 88.949219 33.171875 89.273438 32.820313 89.601563 32.457031 C 89.957031 32.066406 90.324219 31.667969 90.515625 31.589844 L 90.519531 31.585938 C 90.574219 31.566406 90.609375 31.554688 90.632813 31.546875 C 91.511719 31.230469 91.957031 31.070313 95.085938 31.785156 L 95.089844 31.785156 L 95.097656 31.789063 C 95.34375 31.871094 96.007813 32.246094 96.554688 32.679688 C 96.917969 32.960938 97.234375 33.277344 97.367188 33.558594 C 97.4375 33.605469 97.476563 33.609375 97.6875 33.691406 C 98.59375 34.035156 100.980469 34.941406 102.859375 36.445313 C 103.640625 37.085938 103.859375 37.910156 104.023438 38.535156 C 104.152344 39.015625 104.242188 39.355469 104.554688 39.328125 C 104.550781 39.15625 104.585938 38.839844 104.847656 38.777344 L 104.851563 38.773438 C 104.925781 38.757813 105.003906 38.75 105.082031 38.742188 C 105.347656 38.710938 105.664063 38.675781 106.222656 38.320313 L 106.226563 38.316406 L 106.234375 38.3125 C 106.300781 38.28125 106.359375 38.289063 106.410156 38.332031 C 106.464844 38.382813 106.484375 38.488281 106.472656 38.625 C 106.464844 38.734375 106.433594 38.871094 106.394531 39.019531 C 106.265625 39.515625 105.976563 40.128906 105.6875 40.140625 C 105.414063 40.175781 105.296875 40.175781 105.234375 40.175781 C 105.222656 40.175781 105.222656 40.175781 105.222656 40.175781 L 105.214844 40.183594 L 105.199219 40.191406 C 103.761719 41.054688 103.148438 39.378906 102.953125 38.632813 C 102.847656 38.972656 102.730469 39.613281 102.769531 40.628906 C 102.824219 42.117188 103.105469 43.46875 103.203125 43.933594 C 103.226563 44.039063 103.238281 44.105469 103.238281 44.128906 L 103.238281 44.148438 L 103.230469 44.171875 C 103.082031 44.519531 102.574219 45.796875 102.3125 46.453125 C 102.980469 46.65625 103.925781 46.886719 105.496094 47.175781 C 105.496094 47.175781 105.496094 47.175781 105.5 47.175781 C 107.046875 47.457031 107.335938 48.601563 107.335938 48.601563 L 107.371094 48.742188 L 82.191406 48.742188 L 82.253906 48.589844 C 82.742188 47.367188 84.1875 46.90625 85.226563 46.574219 C 85.65625 46.433594 86.019531 46.320313 86.1875 46.1875 C 86.40625 46.011719 87.488281 45.171875 88.507813 44.589844 C 89.082031 44.261719 89.640625 44.015625 90.019531 44.015625 C 90.324219 44.015625 90.796875 44.113281 91.347656 44.246094 Z M 100.851563 45.929688 C 101.066406 45.628906 101.261719 45.335938 101.335938 44.914063 L 101.335938 44.90625 C 101.480469 44.359375 101.308594 43.996094 101.132813 43.636719 C 100.996094 43.355469 100.863281 43.078125 100.863281 42.714844 C 100.863281 42.109375 100.691406 41.449219 100.554688 41.105469 C 100.539063 41.0625 100.523438 41.027344 100.511719 40.996094 C 100.328125 41.191406 100.113281 41.386719 99.921875 41.554688 C 99.695313 41.757813 99.503906 41.925781 99.472656 42.007813 C 99.449219 42.144531 99.453125 42.371094 99.457031 42.605469 C 99.460938 43.039063 99.46875 43.507813 99.308594 43.671875 L 99.304688 43.671875 C 98.75 44.167969 98.339844 44.738281 98.050781 45.203125 C 98.261719 45.230469 98.464844 45.261719 98.644531 45.292969 L 98.648438 45.292969 C 99.757813 45.535156 100.339844 45.730469 100.851563 45.929688 Z M 96.222656 45.035156 C 96.34375 44.917969 96.460938 44.816406 96.5625 44.742188 C 96.644531 44.6875 96.710938 44.644531 96.765625 44.617188 C 96.808594 44.597656 96.84375 44.582031 96.875 44.570313 C 96.96875 44.445313 97.054688 44.320313 97.132813 44.195313 C 97.488281 43.636719 97.648438 43.148438 97.648438 42.746094 C 97.648438 42.363281 97.496094 42.0625 97.230469 41.859375 C 97.210938 41.84375 97.183594 41.824219 97.152344 41.804688 L 97.144531 41.800781 L 97.140625 41.796875 C 96.863281 41.566406 96.761719 41.253906 96.71875 41.046875 C 95.867188 41.699219 95.246094 41.765625 95.015625 41.761719 C 94.542969 43.648438 94.03125 44.460938 93.71875 44.804688 C 93.933594 44.839844 94.140625 44.871094 94.332031 44.890625 C 94.773438 44.929688 95.316406 44.96875 95.859375 45.011719 C 95.980469 45.019531 96.101563 45.027344 96.222656 45.035156 "/>
<path style=" stroke:none;fill-rule:nonzero;fill:rgb(13.699341%,12.199402%,12.5%);fill-opacity:1;" d="M 101.558594 44.953125 C 101.34375 45.632813 101.015625 46.203125 100.617188 46.703125 L 101.972656 46.703125 C 102.125 46.320313 102.8125 44.582031 103.007813 44.113281 C 103.003906 44.089844 102.996094 44.046875 102.984375 43.980469 C 102.882813 43.507813 102.597656 42.140625 102.542969 40.636719 C 102.496094 39.417969 102.675781 38.707031 102.796875 38.402344 C 102.820313 38.335938 102.84375 38.289063 102.863281 38.257813 C 102.917969 38.160156 102.992188 38.144531 103.054688 38.183594 C 103.054688 38.183594 103.054688 38.183594 103.058594 38.1875 C 103.078125 38.203125 103.097656 38.230469 103.101563 38.261719 C 103.105469 38.265625 103.105469 38.265625 103.105469 38.265625 C 103.105469 38.269531 103.105469 38.269531 103.105469 38.269531 C 103.105469 38.269531 103.105469 38.273438 103.105469 38.273438 C 103.136719 38.453125 103.597656 40.875 105.070313 40.003906 C 105.128906 39.949219 105.136719 39.949219 105.234375 39.949219 C 105.292969 39.949219 105.40625 39.949219 105.664063 39.914063 L 105.679688 39.914063 C 105.851563 39.914063 106.066406 39.386719 106.179688 38.960938 C 106.214844 38.824219 106.238281 38.699219 106.246094 38.605469 C 106.25 38.59375 106.25 38.578125 106.253906 38.570313 C 105.707031 38.898438 105.382813 38.933594 105.105469 38.964844 C 105.035156 38.972656 104.964844 38.980469 104.898438 38.996094 C 104.726563 39.042969 104.78125 39.398438 104.78125 39.402344 L 104.804688 39.503906 L 104.699219 39.53125 C 104.097656 39.691406 103.980469 39.246094 103.808594 38.59375 C 103.652344 38 103.441406 37.214844 102.71875 36.621094 C 100.867188 35.140625 98.503906 34.242188 97.609375 33.902344 C 97.371094 33.8125 97.21875 33.753906 97.175781 33.683594 C 97.074219 33.433594 96.769531 33.132813 96.417969 32.855469 C 95.890625 32.441406 95.265625 32.085938 95.03125 32.003906 C 91.972656 31.304688 91.546875 31.457031 90.707031 31.761719 C 90.660156 31.777344 90.617188 31.792969 90.597656 31.800781 C 90.449219 31.863281 90.105469 32.242188 89.769531 32.609375 C 89.425781 32.984375 89.09375 33.351563 88.921875 33.410156 C 88.746094 33.5 88.511719 33.589844 88.269531 33.683594 C 87.789063 33.867188 87.261719 34.074219 87.007813 34.328125 C 86.746094 34.589844 86.394531 35.003906 86.132813 35.421875 C 85.941406 35.722656 85.792969 36.027344 85.765625 36.269531 C 85.769531 36.488281 86.023438 36.871094 86.117188 37.019531 C 86.128906 37.039063 86.144531 37.058594 86.152344 37.074219 C 86.191406 37.113281 86.191406 37.121094 86.191406 37.191406 C 86.191406 37.253906 86.191406 37.4375 86.367188 38.1875 L 86.371094 38.199219 L 86.371094 38.214844 C 86.371094 38.214844 86.410156 38.253906 86.492188 38.332031 C 86.597656 38.429688 86.761719 38.5625 86.996094 38.726563 C 87.085938 38.789063 87.101563 39.011719 87.121094 39.285156 C 87.152344 39.730469 87.199219 40.351563 87.414063 40.386719 C 88.3125 40.507813 88.230469 41.4375 88.15625 41.832031 C 88.332031 41.800781 88.652344 41.703125 89.621094 41.074219 C 89.652344 41.058594 89.6875 41.046875 89.730469 41.046875 C 89.945313 41.046875 90.617188 41.316406 91.261719 41.628906 C 91.90625 41.9375 92.53125 42.296875 92.652344 42.476563 C 92.671875 42.507813 92.683594 42.539063 92.6875 42.570313 C 92.6875 42.574219 92.753906 43.734375 92.414063 44.632813 C 92.296875 45.054688 92 45.429688 91.796875 45.683594 C 91.75 45.738281 91.710938 45.789063 91.679688 45.828125 L 92.917969 45.828125 C 93 45.707031 93.21875 45.335938 93.269531 44.921875 L 93.277344 44.847656 L 93.347656 44.828125 C 93.347656 44.824219 94.09375 44.578125 94.816406 41.613281 L 94.839844 41.515625 L 94.941406 41.527344 C 94.941406 41.527344 95.632813 41.65625 96.738281 40.746094 L 96.921875 40.59375 L 96.921875 40.835938 C 96.921875 40.835938 96.921875 41.316406 97.28125 41.621094 C 97.308594 41.636719 97.339844 41.65625 97.367188 41.679688 C 97.691406 41.925781 97.871094 42.289063 97.871094 42.746094 C 97.871094 43.191406 97.703125 43.722656 97.324219 44.316406 C 97.238281 44.449219 97.140625 44.589844 97.03125 44.734375 L 97.011719 44.761719 L 96.976563 44.773438 C 96.949219 44.78125 96.910156 44.796875 96.871094 44.816406 C 96.824219 44.839844 96.765625 44.875 96.695313 44.929688 C 96.535156 45.042969 96.339844 45.21875 96.160156 45.4375 C 96.046875 45.578125 95.941406 45.730469 95.851563 45.894531 L 97.445313 45.894531 C 97.449219 45.863281 97.445313 45.800781 97.488281 45.722656 C 97.742188 45.265625 98.273438 44.292969 99.148438 43.507813 C 99.242188 43.414063 99.234375 42.996094 99.230469 42.609375 C 99.226563 42.359375 99.222656 42.121094 99.25 41.957031 L 99.253906 41.949219 L 99.253906 41.941406 C 99.300781 41.804688 99.515625 41.613281 99.773438 41.386719 C 99.984375 41.199219 100.226563 40.984375 100.410156 40.769531 C 100.425781 40.746094 100.449219 40.730469 100.472656 40.71875 C 100.546875 40.6875 100.613281 40.726563 100.671875 40.820313 C 100.699219 40.871094 100.734375 40.9375 100.765625 41.023438 C 100.910156 41.382813 101.089844 42.078125 101.089844 42.714844 C 101.089844 43.027344 101.210938 43.28125 101.335938 43.539063 C 101.527344 43.933594 101.71875 44.332031 101.558594 44.953125 C 101.558594 44.957031 101.554688 44.960938 101.554688 44.960938 C 101.554688 44.960938 101.558594 44.957031 101.558594 44.953125 Z M 95.84375 45.234375 C 95.335938 45.199219 94.828125 45.160156 94.3125 45.113281 C 94.058594 45.089844 93.789063 45.046875 93.507813 44.992188 C 93.5 44.996094 93.492188 45.003906 93.484375 45.007813 C 93.398438 45.546875 93.066406 46.011719 93.066406 46.011719 L 93.03125 46.054688 L 91.566406 46.054688 C 91.449219 46.054688 91.398438 46.003906 91.398438 45.90625 C 91.398438 45.828125 91.476563 45.722656 91.585938 45.585938 L 90.671875 45.585938 L 90.71875 45.4375 C 90.804688 45.183594 90.933594 44.964844 91.082031 44.710938 L 91.085938 44.710938 C 91.132813 44.628906 91.183594 44.546875 91.234375 44.453125 C 90.726563 44.332031 90.292969 44.238281 90.019531 44.238281 C 89.683594 44.238281 89.164063 44.472656 88.621094 44.785156 C 87.617188 45.355469 86.542969 46.195313 86.328125 46.367188 C 86.128906 46.519531 85.75 46.640625 85.296875 46.785156 C 84.34375 47.089844 83.042969 47.507813 82.535156 48.515625 L 107.0625 48.515625 C 106.9375 48.230469 106.539063 47.59375 105.460938 47.394531 L 105.457031 47.394531 C 103.859375 47.105469 102.90625 46.871094 102.230469 46.664063 C 102.183594 46.78125 102.15625 46.855469 102.15625 46.855469 L 102.128906 46.929688 L 100.265625 46.929688 L 100.335938 46.769531 C 100.445313 46.519531 100.578125 46.3125 100.71875 46.117188 C 100.226563 45.933594 99.652344 45.742188 98.597656 45.515625 C 98.398438 45.476563 98.167969 45.441406 97.921875 45.414063 C 97.824219 45.578125 97.746094 45.71875 97.6875 45.832031 C 97.578125 46.03125 97.511719 46.152344 97.421875 46.152344 C 97.382813 46.152344 97.355469 46.144531 97.335938 46.121094 L 95.488281 46.121094 L 95.5625 45.960938 C 95.675781 45.71875 95.828125 45.492188 95.988281 45.296875 C 96 45.28125 96.011719 45.265625 96.027344 45.246094 C 95.964844 45.242188 95.90625 45.238281 95.84375 45.234375 Z M 90.992188 45.359375 L 91.761719 45.359375 C 91.929688 45.136719 92.117188 44.863281 92.195313 44.566406 L 92.199219 44.566406 L 92.199219 44.558594 C 92.511719 43.746094 92.46875 42.691406 92.460938 42.597656 C 92.402344 42.511719 92.164063 42.355469 91.847656 42.183594 C 91.800781 42.859375 91.703125 44.042969 91.601563 44.246094 C 91.492188 44.460938 91.378906 44.652344 91.277344 44.824219 C 91.167969 45.015625 91.066406 45.1875 90.992188 45.359375 Z M 89.484375 36.667969 C 89.214844 36.9375 88.609375 36.53125 88.609375 36.195313 C 88.542969 35.996094 88.878906 35.726563 89.078125 35.1875 C 89.214844 34.652344 88.945313 34.179688 89.011719 34.113281 C 89.148438 34.046875 90.761719 35.1875 89.484375 36.667969 Z M 87.9375 37.808594 C 87.871094 37.742188 87.398438 38.144531 87.398438 38.011719 C 87.667969 37.339844 88.40625 37.136719 88.472656 37.136719 C 88.542969 37.136719 88.472656 37.273438 88.472656 37.472656 C 88.339844 37.945313 88.472656 37.945313 87.9375 37.808594 "/>
<path style=" stroke:none;fill-rule:nonzero;fill:rgb(100%,100%,100%);fill-opacity:1;" d="M 117.976563 89.289063 L 117.976563 95.804688 L 71.878906 95.804688 L 71.878906 88.285156 L 72.105469 88.285156 L 72.972656 87.136719 L 61.726563 87.136719 L 62.542969 86.339844 L 65.679688 83.261719 L 62.558594 80.5 L 61.640625 79.683594 L 72.726563 79.683594 C 73.5 81.398438 74.355469 83.054688 75.289063 84.636719 C 75.378906 84.789063 75.472656 84.945313 75.566406 85.097656 L 73.039063 88.285156 L 116.933594 88.285156 L 114.339844 85.015625 C 114.414063 84.886719 114.492188 84.761719 114.566406 84.636719 C 115.5 83.054688 116.355469 81.398438 117.125 79.683594 L 128.078125 79.683594 L 127.160156 80.5 L 124.039063 83.261719 L 127.175781 86.339844 L 127.992188 87.136719 L 117.046875 87.136719 L 117.929688 88.285156 L 117.976563 88.285156 L 117.976563 88.347656 L 117.980469 88.351563 L 117.980469 89.289063 L 117.976563 89.289063 "/>
<path style=" stroke:none;fill-rule:evenodd;fill:rgb(13.699341%,12.199402%,12.5%);fill-opacity:1;" d="M 80.949219 91.238281 C 80.949219 90.769531 80.878906 90.703125 80.542969 90.703125 L 80.542969 90.566406 L 82.628906 90.566406 C 82.628906 90.636719 82.628906 90.972656 82.695313 91.238281 L 82.492188 91.238281 C 82.492188 91.039063 82.425781 90.902344 82.359375 90.835938 C 82.292969 90.769531 82.15625 90.769531 81.886719 90.769531 L 81.6875 90.769531 C 81.484375 90.769531 81.484375 90.769531 81.484375 90.902344 L 81.484375 91.84375 L 81.820313 91.84375 C 82.222656 91.84375 82.222656 91.777344 82.292969 91.441406 L 82.425781 91.441406 L 82.425781 92.449219 L 82.292969 92.449219 C 82.222656 92.046875 82.222656 92.046875 81.820313 92.046875 L 81.484375 92.046875 L 81.484375 92.785156 C 81.484375 93.121094 81.550781 93.1875 81.617188 93.257813 C 81.6875 93.257813 81.820313 93.257813 82.023438 93.257813 C 82.222656 93.257813 82.425781 93.257813 82.492188 93.121094 C 82.628906 93.054688 82.695313 92.921875 82.761719 92.652344 L 82.894531 92.71875 C 82.894531 92.921875 82.761719 93.324219 82.761719 93.457031 L 80.542969 93.457031 L 80.542969 93.324219 C 80.878906 93.324219 80.949219 93.257813 80.949219 92.785156 Z M 109.378906 90.636719 L 109.445313 90.703125 C 108.972656 91.644531 108.570313 92.519531 108.164063 93.457031 L 107.695313 93.523438 L 107.628906 93.457031 C 108.101563 92.652344 108.570313 91.910156 108.972656 91.105469 L 108.03125 91.105469 C 107.765625 91.105469 107.695313 91.105469 107.628906 91.375 L 107.425781 91.375 C 107.496094 91.105469 107.5625 90.835938 107.5625 90.636719 Z M 105.480469 90.636719 L 105.480469 90.703125 C 105.074219 91.644531 104.605469 92.519531 104.269531 93.457031 L 103.730469 93.523438 L 103.730469 93.457031 C 104.203125 92.652344 104.671875 91.910156 105.007813 91.105469 L 104.132813 91.105469 C 103.796875 91.105469 103.796875 91.105469 103.664063 91.375 L 103.53125 91.375 C 103.597656 91.105469 103.597656 90.835938 103.664063 90.636719 Z M 100.503906 90.769531 C 100.707031 90.769531 100.90625 90.972656 100.90625 91.238281 C 100.90625 91.574219 100.773438 91.710938 100.707031 91.777344 C 100.371094 91.644531 100.167969 91.441406 100.167969 91.171875 C 100.167969 90.972656 100.304688 90.769531 100.503906 90.769531 Z M 100.570313 93.324219 C 100.371094 93.324219 100.101563 93.121094 100.101563 92.71875 C 100.101563 92.449219 100.234375 92.246094 100.371094 92.179688 C 100.707031 92.316406 100.976563 92.449219 100.976563 92.851563 C 100.976563 93.121094 100.839844 93.324219 100.570313 93.324219 Z M 100.570313 90.636719 C 100.035156 90.636719 99.699219 90.972656 99.699219 91.375 C 99.699219 91.710938 99.898438 91.910156 100.167969 92.046875 C 100.035156 92.113281 99.832031 92.246094 99.765625 92.316406 C 99.699219 92.382813 99.566406 92.519531 99.566406 92.785156 C 99.566406 93.257813 99.96875 93.523438 100.503906 93.523438 C 100.90625 93.523438 101.511719 93.257813 101.511719 92.652344 C 101.511719 92.246094 101.175781 91.980469 100.90625 91.84375 C 101.109375 91.710938 101.246094 91.644531 101.246094 91.644531 C 101.3125 91.507813 101.378906 91.375 101.378906 91.238281 C 101.378906 90.902344 101.042969 90.636719 100.570313 90.636719 Z M 95.933594 90.835938 C 96.203125 90.769531 96.539063 90.703125 96.875 90.636719 L 96.875 93.054688 C 96.875 93.324219 96.875 93.324219 97.277344 93.324219 L 97.277344 93.457031 L 95.933594 93.457031 L 95.933594 93.324219 C 96.339844 93.324219 96.339844 93.324219 96.339844 93.054688 L 96.339844 91.171875 C 96.339844 91.039063 96.339844 90.972656 96.203125 90.972656 L 95.933594 90.972656 Z M 92.910156 93.1875 C 92.910156 92.988281 93.046875 92.851563 93.246094 92.851563 C 93.449219 92.851563 93.582031 92.988281 93.582031 93.1875 C 93.582031 93.390625 93.449219 93.523438 93.246094 93.523438 C 93.046875 93.523438 92.910156 93.390625 92.910156 93.1875 Z M 90.289063 92.785156 C 90.289063 93.257813 90.289063 93.324219 90.691406 93.324219 L 90.691406 93.457031 L 89.28125 93.457031 L 89.28125 93.324219 C 89.683594 93.324219 89.683594 93.257813 89.683594 92.785156 L 89.683594 90.769531 L 89.550781 90.769531 C 89.214844 90.769531 89.078125 90.769531 89.011719 90.902344 C 88.945313 90.972656 88.945313 91.039063 88.878906 91.308594 L 88.675781 91.308594 C 88.742188 90.972656 88.742188 90.636719 88.742188 90.433594 L 88.8125 90.433594 C 88.945313 90.5 88.945313 90.566406 89.078125 90.566406 L 90.894531 90.566406 C 91.027344 90.566406 91.09375 90.5 91.164063 90.433594 L 91.230469 90.433594 C 91.230469 90.636719 91.230469 90.972656 91.296875 91.308594 L 91.09375 91.308594 C 91.09375 91.039063 91.027344 90.902344 90.960938 90.835938 C 90.894531 90.769531 90.761719 90.769531 90.492188 90.769531 L 90.289063 90.769531 Z M 84.980469 92.585938 C 85.046875 92.851563 85.316406 93.324219 85.71875 93.324219 C 86.054688 93.324219 86.191406 93.121094 86.191406 92.851563 C 86.191406 92.585938 86.054688 92.382813 85.71875 92.246094 L 85.585938 92.246094 C 85.25 92.046875 84.914063 91.777344 84.914063 91.375 C 84.914063 90.902344 85.316406 90.5 85.921875 90.5 C 86.054688 90.5 86.191406 90.5 86.324219 90.566406 C 86.390625 90.566406 86.457031 90.566406 86.527344 90.566406 C 86.527344 90.769531 86.59375 90.972656 86.59375 91.238281 L 86.457031 91.238281 C 86.390625 90.972656 86.257813 90.703125 85.851563 90.703125 C 85.585938 90.703125 85.382813 90.902344 85.382813 91.105469 C 85.382813 91.375 85.585938 91.507813 85.921875 91.644531 L 86.054688 91.710938 C 86.390625 91.84375 86.726563 92.113281 86.726563 92.585938 C 86.726563 93.121094 86.324219 93.523438 85.652344 93.523438 C 85.519531 93.523438 85.316406 93.523438 85.25 93.457031 C 85.113281 93.457031 84.980469 93.390625 84.980469 93.390625 C 84.914063 93.257813 84.84375 92.921875 84.777344 92.652344 L 84.980469 92.585938 "/>
<path style=" stroke:none;fill-rule:evenodd;fill:rgb(100%,100%,100%);fill-opacity:1;" d="M 86.257813 59.316406 C 85.382813 59.316406 84.777344 59.785156 84.578125 59.988281 C 83.769531 60.726563 82.492188 60.726563 81.6875 59.988281 C 80.8125 60.726563 79.535156 60.726563 78.730469 59.988281 C 78.527344 59.785156 77.988281 59.316406 77.117188 59.316406 C 74.898438 59.382813 74.226563 61.667969 74.699219 62.609375 C 75.707031 64.691406 76.714844 67.582031 76.714844 67.582031 L 76.714844 67.648438 C 76.308594 67.785156 76.042969 68.1875 76.042969 68.660156 C 76.042969 69.328125 76.578125 69.800781 77.183594 69.800781 C 78.527344 69.597656 80.074219 69.464844 81.6875 69.464844 C 83.300781 69.464844 84.84375 69.597656 86.191406 69.800781 C 86.863281 69.800781 87.332031 69.328125 87.332031 68.660156 C 87.332031 68.1875 87.0625 67.785156 86.59375 67.582031 C 86.59375 67.582031 87.601563 64.761719 88.609375 62.609375 C 89.078125 61.667969 88.40625 59.382813 86.257813 59.316406 Z M 81.957031 55.890625 C 82.492188 55.890625 83.097656 56.226563 83.300781 56.761719 L 83.300781 54.476563 C 83.097656 54.949219 82.558594 55.351563 81.957031 55.351563 C 81.957031 54.746094 82.292969 54.210938 82.828125 54.007813 L 80.542969 54.007813 C 81.015625 54.210938 81.417969 54.746094 81.417969 55.351563 C 80.8125 55.351563 80.273438 54.949219 80.074219 54.476563 L 80.074219 56.761719 C 80.273438 56.226563 80.8125 55.890625 81.417969 55.890625 C 81.417969 56.359375 81.148438 56.761719 80.8125 57.03125 C 80.476563 57.234375 80.273438 57.636719 80.273438 58.105469 C 80.273438 58.914063 80.878906 59.519531 81.6875 59.519531 C 82.425781 59.519531 83.097656 58.914063 83.097656 58.105469 C 83.097656 57.636719 82.828125 57.234375 82.492188 57.03125 C 82.15625 56.761719 81.957031 56.359375 81.957031 55.890625 "/>
<path style=" stroke:none;fill-rule:evenodd;fill:rgb(13.699341%,12.199402%,12.5%);fill-opacity:1;" d="M 87.871094 62.273438 L 86.234375 66.476563 C 85.632813 66.339844 85.179688 65.804688 85.179688 65.164063 C 85.179688 65.105469 85.179688 65.058594 85.179688 65.015625 C 85.214844 65.023438 85.238281 65.027344 85.25 65.027344 C 85.316406 65.097656 85.449219 65.027344 85.519531 64.960938 C 85.519531 64.828125 85.449219 64.691406 85.382813 64.625 L 85.246094 64.578125 C 85.328125 64.378906 85.515625 64.140625 85.921875 64.222656 C 86.457031 64.289063 86.324219 64.960938 86.324219 64.894531 C 86.457031 64.828125 86.863281 64.425781 86.527344 63.886719 C 86.390625 63.683594 86.257813 63.414063 85.71875 63.484375 C 85.71875 63.484375 85.988281 62.8125 85.785156 62.273438 L 85.71875 62.273438 C 85.25 62.542969 85.046875 63.28125 85.046875 63.214844 C 84.644531 62.878906 84.375 62.945313 84.105469 63.078125 C 83.570313 63.28125 83.636719 63.820313 83.636719 63.953125 C 83.636719 64.019531 83.972656 63.414063 84.441406 63.683594 C 84.765625 63.886719 84.746094 64.1875 84.683594 64.390625 L 84.578125 64.355469 C 84.441406 64.355469 84.308594 64.425781 84.242188 64.492188 C 84.242188 64.625 84.308594 64.761719 84.375 64.761719 C 84.390625 64.761719 84.445313 64.773438 84.519531 64.796875 C 84.324219 65.246094 83.835938 65.566406 83.300781 65.566406 C 82.558594 65.566406 81.957031 64.960938 81.957031 64.222656 L 82.023438 63.753906 C 82.628906 63.753906 83.164063 64.089844 83.367188 64.625 L 83.367188 62.207031 C 83.164063 62.742188 82.628906 63.078125 82.023438 63.078125 C 82.023438 62.476563 82.359375 61.9375 82.828125 61.667969 L 80.410156 61.667969 C 80.949219 61.9375 81.28125 62.476563 81.28125 63.078125 C 80.679688 63.078125 80.140625 62.742188 79.9375 62.207031 L 79.9375 64.625 C 80.140625 64.089844 80.609375 63.753906 81.28125 63.753906 L 81.351563 64.222656 C 81.351563 64.960938 80.746094 65.566406 80.007813 65.566406 C 79.488281 65.566406 79.019531 65.269531 78.8125 64.847656 C 78.84375 64.835938 78.863281 64.828125 78.863281 64.828125 C 79 64.761719 79.066406 64.625 79 64.558594 C 79 64.425781 78.863281 64.355469 78.730469 64.425781 L 78.625 64.460938 C 78.53125 64.273438 78.472656 63.96875 78.863281 63.753906 C 79.335938 63.414063 79.671875 64.019531 79.671875 63.953125 C 79.671875 63.886719 79.738281 63.28125 79.132813 63.078125 C 78.929688 63.011719 78.660156 62.945313 78.257813 63.28125 C 78.257813 63.28125 78.058594 62.609375 77.519531 62.273438 C 77.320313 62.8125 77.585938 63.484375 77.585938 63.484375 C 77.050781 63.484375 76.914063 63.683594 76.78125 63.886719 C 76.445313 64.425781 76.847656 64.828125 76.914063 64.894531 C 76.980469 64.960938 76.847656 64.289063 77.386719 64.222656 C 77.835938 64.179688 77.984375 64.460938 78.035156 64.65625 L 77.921875 64.691406 C 77.855469 64.691406 77.789063 64.828125 77.789063 64.960938 C 77.855469 65.097656 77.988281 65.097656 78.058594 65.097656 C 78.066406 65.097656 78.089844 65.089844 78.125 65.082031 C 78.125 65.105469 78.125 65.132813 78.125 65.164063 C 78.125 65.804688 77.671875 66.339844 77.074219 66.476563 L 75.4375 62.273438 C 75.4375 62.140625 75.4375 62.003906 75.4375 61.804688 C 75.4375 60.863281 76.175781 60.121094 77.117188 60.121094 C 77.519531 60.121094 77.855469 60.257813 78.125 60.527344 C 78.730469 60.996094 79.402344 61.265625 80.207031 61.265625 C 80.746094 61.265625 81.214844 61.132813 81.6875 60.929688 C 81.6875 60.929688 81.6875 60.929688 81.617188 60.929688 L 81.6875 60.929688 C 82.089844 61.132813 82.558594 61.265625 83.097656 61.265625 C 83.90625 61.265625 84.644531 60.996094 85.179688 60.527344 C 85.449219 60.257813 85.851563 60.121094 86.257813 60.121094 C 87.199219 60.121094 87.9375 60.863281 87.9375 61.804688 C 87.9375 62.003906 87.871094 62.140625 87.871094 62.273438 Z M 82.695313 68.390625 C 81.957031 68.390625 80.949219 68.996094 80.949219 68.996094 C 81.082031 68.859375 81.148438 68.589844 81.148438 68.390625 C 81.148438 68.121094 81.082031 67.917969 80.949219 67.785156 C 80.949219 67.785156 81.957031 68.320313 82.695313 68.390625 Z M 79 68.390625 C 78.328125 68.589844 77.386719 69.328125 77.386719 69.328125 C 77.519531 69.128906 77.585938 68.925781 77.519531 68.660156 C 77.519531 68.457031 77.386719 68.253906 77.183594 68.121094 C 77.183594 68.121094 78.328125 68.523438 79 68.390625 Z M 86.257813 68.792969 C 85.519531 68.660156 84.375 69.0625 84.375 69.0625 C 84.578125 68.925781 84.710938 68.726563 84.777344 68.523438 C 84.777344 68.253906 84.710938 68.054688 84.578125 67.851563 C 84.578125 67.851563 85.519531 68.589844 86.257813 68.792969 Z M 85.984375 67.109375 L 85.851563 67.449219 C 84.578125 67.246094 83.164063 67.179688 81.6875 67.179688 C 80.140625 67.179688 78.730469 67.3125 77.453125 67.449219 L 77.300781 67.0625 C 77.96875 66.910156 78.507813 66.429688 78.730469 65.769531 C 79.066406 66.035156 79.535156 66.238281 80.007813 66.238281 C 80.679688 66.238281 81.28125 65.902344 81.6875 65.363281 C 82.023438 65.902344 82.628906 66.238281 83.300781 66.238281 C 83.769531 66.238281 84.242188 66.035156 84.578125 65.769531 C 84.792969 66.414063 85.308594 66.929688 85.984375 67.109375 "/>
</g>
</svg>
